<?xml version="1.0" encoding="UTF-8" standalone="no"?>
<svg
   version="1.1"
   id="Layer_1"
   x="0px"
   y="0px"
   width="256"
   viewBox="0 0 256 256"
   enable-background="new 0 0 711 712"
   xml:space="preserve"
   sodipodi:docname="icon (1).svg"
   height="256"
   inkscape:version="1.3.2 (091e20ef0f, 2023-11-25, custom)"
   xmlns:inkscape="http://www.inkscape.org/namespaces/inkscape"
   xmlns:sodipodi="http://sodipodi.sourceforge.net/DTD/sodipodi-0.dtd"
   xmlns="http://www.w3.org/2000/svg"
   xmlns:svg="http://www.w3.org/2000/svg"><defs
   id="defs17" /><sodipodi:namedview
   id="namedview17"
   pagecolor="#ffffff"
   bordercolor="#000000"
   borderopacity="0.25"
   inkscape:showpageshadow="2"
   inkscape:pageopacity="0.0"
   inkscape:pagecheckerboard="0"
   inkscape:deskcolor="#d1d1d1"
   inkscape:zoom="1.7837079"
   inkscape:cx="192.01575"
   inkscape:cy="117.45197"
   inkscape:window-width="1440"
   inkscape:window-height="810"
   inkscape:window-x="2106"
   inkscape:window-y="86"
   inkscape:window-maximized="0"
   inkscape:current-layer="Layer_1" />
<path
   fill="#000000"
   opacity="1"
   stroke="none"
   d="M 0,88.808989 C 0,59.086141 0,29.54307 0,0 c 85.333333,0 170.66667,0 256,0 0,85.333332 0,170.66666 0,256 -85.33333,0 -170.666667,0 -256,0 C 0,200.3296 0,144.65918 0,88.808989 M 226.65541,3.2359551 c -11.30228,0 -22.60458,0 -33.9033,0 0,20.3983609 0,40.4889819 0,60.6103339 19.92379,0 39.72519,0 59.52536,0 0,-20.244578 0,-40.335198 0,-60.6103339 -8.50106,0 -16.88153,0 -25.62206,0 M 192.6301,248.26567 c 0,1.47224 0,2.94448 0,4.36179 20.06608,0 39.89029,0 59.6802,0 0,-20.13031 0,-40.12391 0,-60.16292 -19.91332,0 -39.73736,0 -59.6802,0 0,18.55065 0,36.99657 0,55.80113 M 3.6005626,53.393258 c 0,3.499873 0,6.999752 0,10.498837 0.7062331,0.05333 1.0626196,0.103709 1.4190163,0.103785 18.7736341,0.004 37.5473341,-0.01658 56.3207971,0.04018 1.608382,0.0049 1.686878,-0.717559 1.685395,-1.947553 -0.0229,-18.926925 -0.03547,-37.853939 0.01876,-56.7807399 0.0046,-1.6274345 -0.405676,-2.1150821 -2.083506,-2.1095925 -18.413569,0.060245 -36.827399,0.03691 -55.2411562,0.041511 -0.6397259,1.597e-4 -1.2794379,0.05509 -2.1193062,0.093691 0,16.6713924 0,33.1858654 0,50.0598854 M 189.02954,33.977528 c 0,-10.213705 0,-20.427411 0,-30.5943514 -19.97615,0 -39.62531,0 -59.27777,0 0,20.2483464 0,40.3491884 0,60.5013794 19.78068,0 39.42965,0 59.27777,0 0,-9.925225 0,-19.736353 0,-29.907028 M 93.074543,3.2359551 c -8.785927,0 -17.571851,0 -26.312875,0 0,20.4304559 0,40.5265649 0,60.6288399 19.795831,0 39.440092,0 59.138602,0 0,-20.23131 0,-40.327239 0,-60.6288399 -10.90063,0 -21.68316,0 -32.825727,0 M 63.009845,208 c 0,-5.1857 0,-10.37138 0,-15.50017 -19.951084,0 -39.652846,0 -59.3165845,0 0,20.13149 0,40.12262 0,60.15576 19.7944465,0 39.4960245,0 59.3165845,0 0,-14.83745 0,-29.56673 0,-44.65559 m 3.600563,11.14607 c 0,11.1758 0,22.3516 0,33.50955 19.917398,0 39.617582,0 59.300812,0 0,-20.14059 0,-40.17254 0,-60.18766 -19.80887,0 -39.509042,0 -59.300812,0 0,8.84491 0,17.58172 0,26.67811 m 63.009842,-7.55056 c 0,13.53844 0,27.07689 0,40.57669 1.86509,0.64445 55.58239,0.97953 59.23497,0.41198 0,-19.9235 0,-39.84239 0,-59.76589 -1.68748,-0.49982 -56.6703,-0.72513 -59.23497,-0.21627 0,6.19663 0,12.41527 0,18.99349 m 84.07314,-22.47191 c 12.86909,0 25.73817,0 38.56296,0 0,-20.04213 0,-39.82993 0,-59.59018 -19.91633,0 -39.68943,0 -59.51501,0 0,19.88301 0,39.67064 0,59.59018 6.93761,0 13.76479,0 20.95205,0 M 48.067511,129.4382 c -14.788772,0 -29.577543,0 -44.3587623,0 0,20.00564 0,39.7949 0,59.57734 19.8055053,0 39.5026293,0 59.1929463,0 0,-19.89752 0,-39.68677 0,-59.57734 -4.896354,0 -9.685243,0 -14.834184,0 m 77.952179,10.60674 c 0,-3.50898 0,-7.01797 0,-10.46808 -19.9496,0 -39.653024,0 -59.318159,0 0,19.8919 0,39.64502 0,59.43986 19.794528,0 39.497769,0 59.318159,0 0,-16.27515 0,-32.44369 0,-48.97178 m 63.00985,19.05618 c 0,-9.85536 0,-19.71073 0,-29.51806 -19.95334,0 -39.64809,0 -59.312,0 0,19.88943 0,39.63386 0,59.42747 19.79203,0 39.48659,0 59.312,0 0,-9.92495 0,-19.7374 0,-29.90941 m 12.06188,-32.89887 c 17.06685,0 34.13368,0 51.20053,0 0,-19.76269 0,-39.310633 0,-58.85907 -19.92304,0 -39.73842,0 -59.55441,0 0,19.655367 0,39.20331 0,58.85907 2.73539,0 5.3646,0 8.35388,0 m -176.787623,0 c 12.873654,0 25.747307,0 38.600969,0 0,-19.7669 0,-39.323789 0,-58.861374 -19.80965,0 -39.514045,0 -59.199117,0 0,19.66199 0,39.218884 0,58.861374 6.815854,0 13.526973,0 20.598148,0 m 42.306611,-7.73038 c 0,2.55213 0,5.10425 0,7.62418 19.91855,0 39.624242,0 59.302932,0 0,-19.66453 0,-39.222712 0,-58.753902 -19.81223,0 -39.517913,0 -59.302932,0 0,16.994118 0,33.882152 0,51.129722 m 88.033752,7.73038 c 11.43444,0 22.86887,0 34.28077,0 0,-19.76723 0,-39.3254 0,-58.861846 -19.81044,0 -39.51613,0 -59.20007,0 0,19.662789 0,39.220956 0,58.861846 8.25598,0 16.40761,0 24.9193,0 z"
   id="path1"
   style="stroke-width:0.359803" />
<path
   fill="#444d5f"
   opacity="1"
   stroke="none"
   d="m 226.83544,3.2359551 c 8.5605,0 16.94097,0 25.44203,0 0,20.2751359 0,40.3657559 0,60.6103339 -19.80017,0 -39.60157,0 -59.52536,0 0,-20.121352 0,-40.211973 0,-60.6103339 11.29872,0 22.60102,0 34.08333,0 z"
   id="path2"
   style="stroke-width:0.359803" />
<path
   fill="#b48ead"
   opacity="1"
   stroke="none"
   d="m 192.6301,248.08635 c 0,-18.62524 0,-37.07116 0,-55.62181 19.94284,0 39.76688,0 59.6802,0 0,20.03901 0,40.03261 0,60.16292 -19.78991,0 -39.61412,0 -59.6802,0 0,-1.41731 0,-2.88955 0,-4.54111 z"
   id="path3"
   style="stroke-width:0.359803" />
<path
   fill="#2e3440"
   opacity="1"
   stroke="none"
   d="m 3.6005626,53.213483 c 0,-16.694245 0,-33.208718 0,-49.8801102 0.8398683,-0.038601 1.4795803,-0.093532 2.1193062,-0.093691 18.4137572,-0.0046 36.8275872,0.018736 55.2411452,-0.041511 1.677829,-0.00549 2.088167,0.482158 2.083505,2.1095925 -0.05422,18.9268007 -0.04164,37.8538147 -0.01876,56.7807397 0.0014,1.229994 -0.07701,1.952414 -1.685395,1.947553 -18.773452,-0.05674 -37.547152,-0.03617 -56.3207861,-0.04018 -0.3563967,-7.6e-5 -0.7127832,-0.05046 -1.4190163,-0.103785 0,-3.499085 0,-6.998964 1e-6,-10.678612 z"
   id="path4"
   style="stroke-width:0.359803" />
<path
   fill="#434c5e"
   opacity="1"
   stroke="none"
   d="m 189.02954,34.157303 c 0,9.9909 0,19.802028 0,29.727253 -19.84812,0 -39.49709,0 -59.27777,0 0,-20.152191 0,-40.253033 0,-60.5013794 19.65246,0 39.30162,0 59.27777,0 0,10.1669404 0,20.3806464 0,30.7741264 z"
   id="path5"
   style="stroke-width:0.359803" />
<path
   fill="#3b4252"
   opacity="1"
   stroke="none"
   d="m 93.254571,3.2359551 c 10.962539,0 21.745069,0 32.645699,0 0,20.3016009 0,40.3975299 0,60.6288399 -19.69851,0 -39.342771,0 -59.138602,0 0,-20.102275 0,-40.198384 0,-60.6288399 8.741024,0 17.526948,0 26.492903,0 z"
   id="path6"
   style="stroke-width:0.359803" />
<path
   fill="#d08770"
   opacity="1"
   stroke="none"
   d="m 63.009845,208.17978 c 0,14.90908 0,29.63836 0,44.47581 -19.82056,0 -39.522138,0 -59.3165845,0 0,-20.03314 0,-40.02427 0,-60.15576 19.6637385,0 39.3655005,0 59.3165845,0 0,5.12879 0,10.31447 0,15.67995 z"
   id="path7"
   style="stroke-width:0.359803" />
<path
   fill="#ebcb8b"
   opacity="1"
   stroke="none"
   d="m 66.610408,218.96629 c 0,-8.91661 0,-17.65342 0,-26.49833 19.79177,0 39.491942,0 59.300812,0 0,20.01512 0,40.04707 0,60.18766 -19.68323,0 -39.383414,0 -59.300812,0 0,-11.15795 0,-22.33375 0,-33.68933 z"
   id="path8"
   style="stroke-width:0.359803" />
<path
   fill="#a3be8c"
   opacity="1"
   stroke="none"
   d="m 129.62025,211.41573 c 0,-6.39844 0,-12.61708 0,-18.81371 2.56467,-0.50886 57.54749,-0.28355 59.23497,0.21627 0,19.9235 0,39.84239 0,59.76589 -3.65258,0.56755 -57.36988,0.23247 -59.23497,-0.41198 0,-13.4998 0,-27.03825 0,-40.75647 z"
   id="path9"
   style="stroke-width:0.359803" />
<path
   fill="#bf616a"
   opacity="1"
   stroke="none"
   d="m 213.51336,189.1236 c -7.00723,0 -13.83441,0 -20.77202,0 0,-19.91954 0,-39.70717 0,-59.59018 19.82558,0 39.59868,0 59.51501,0 0,19.76025 0,39.54805 0,59.59018 -12.82479,0 -25.69387,0 -38.74299,0 z"
   id="path10"
   style="stroke-width:0.359803" />
<path
   fill="#88c0d0"
   opacity="1"
   stroke="none"
   d="m 48.247539,129.4382 c 4.968913,0 9.757802,0 14.654156,0 0,19.89057 0,39.67982 0,59.57734 -19.690317,0 -39.387441,0 -59.1929463,0 0,-19.78244 0,-39.5717 0,-59.57734 14.7812193,0 29.5699903,0 44.5387903,0 z"
   id="path11"
   style="stroke-width:0.359803" />
<path
   fill="#81a1c1"
   opacity="1"
   stroke="none"
   d="m 126.01969,140.22472 c 0,16.34831 0,32.51685 0,48.792 -19.82039,0 -39.523631,0 -59.318159,0 0,-19.79484 0,-39.54796 0,-59.43986 19.665135,0 39.368559,0 59.318159,0 0,3.45011 0,6.9591 0,10.64786 z"
   id="path12"
   style="stroke-width:0.359803" />
<path
   fill="#5e81ac"
   opacity="1"
   stroke="none"
   d="m 189.02954,159.2809 c 0,9.99223 0,19.80468 0,29.72963 -19.82541,0 -39.51997,0 -59.312,0 0,-19.79361 0,-39.53804 0,-59.42747 19.66391,0 39.35866,0 59.312,0 0,9.80733 0,19.6627 0,29.69784 z"
   id="path13"
   style="stroke-width:0.359803" />
<path
   fill="#8fbcbb"
   opacity="1"
   stroke="none"
   d="m 200.91139,126.20225 c -2.80925,0 -5.43846,0 -8.17385,0 0,-19.65576 0,-39.203703 0,-58.85907 19.81599,0 39.63137,0 59.55441,0 0,19.548437 0,39.09638 0,58.85907 -17.06685,0 -34.13368,0 -51.38056,0 z"
   id="path14"
   style="stroke-width:0.359803" />
<path
   fill="#d8dee9"
   opacity="1"
   stroke="none"
   d="m 24.123769,126.20225 c -6.891147,0 -13.602266,0 -20.41812,0 0,-19.64249 0,-39.199384 0,-58.861374 19.685072,0 39.389467,0 59.199117,0 0,19.537585 0,39.094474 0,58.861374 -12.853662,0 -25.727315,0 -38.780997,0 z"
   id="path15"
   style="stroke-width:0.359803" />
<path
   fill="#e5e9f0"
   opacity="1"
   stroke="none"
   d="m 66.610408,118.29211 c 0,-17.06781 0,-33.955844 0,-50.949962 19.785019,0 39.490702,0 59.302932,0 0,19.53119 0,39.089372 0,58.753902 -19.67869,0 -39.384382,0 -59.302932,0 0,-2.51993 0,-5.07205 0,-7.80394 z"
   id="path16"
   style="stroke-width:0.359803" />
<path
   fill="#e5e9f0"
   opacity="1"
   stroke="none"
   d="m 154.46414,126.20225 c -8.33167,0 -16.4833,0 -24.73928,0 0,-19.64089 0,-39.199057 0,-58.861846 19.68394,0 39.38963,0 59.20007,0 0,19.536446 0,39.094616 0,58.861846 -11.4119,0 -22.84633,0 -34.46079,0 z"
   id="path17"
   style="stroke-width:0.359803" />
</svg>
