<svg width="8.4667mm" height="8.4667mm" version="1.1" viewBox="0 0 8.4667 8.4667" xml:space="preserve" xmlns="http://www.w3.org/2000/svg"><g transform="translate(-70.644 -71.173)" stroke-width=".0119"><path d="m70.644 74.11v-2.9372h8.4667v8.4667h-8.4667v-5.5295m7.4962-2.8301h-1.1213v2.0046h1.9687v-2.0046h-0.8474m-1.1253 8.1038v0.14426h1.9738v-1.9898h-1.9738v1.8455m-6.2518-6.445v0.34723c0.02336 0.0018 0.03514 0.0034 0.04693 0.0034 0.6209 1.38e-4 1.2418-5.5e-4 1.8627 0.0013 0.05319 1.63e-4 0.05579-0.02373 0.05574-0.06441-7.62e-4 -0.62597-0.0012-1.2519 6.25e-4 -1.8779 1.5e-4 -0.05382-0.01342-0.06995-0.06891-0.06977-0.60899 2e-3 -1.218 0.0012-1.827 0.0014-0.02116 6e-6 -0.04231 0.0018-0.07009 0.0031v1.6556m6.1327-0.64214v-1.0118h-1.9605v2.001h1.9605v-0.98911m-3.1735-1.0167h-0.87024v2.0052h1.9559v-2.0052h-1.0856m-0.99433 6.7721v-0.51264h-1.9618v1.9895h1.9618v-1.4769m0.11908 0.36863v1.1083h1.9612v-1.9906h-1.9612v0.88232m2.0839-0.24972v1.342c0.06168 0.02131 1.8383 0.0324 1.9591 0.01363v-1.9766c-0.05581-0.01653-1.8743-0.02398-1.9591-0.0072v0.62817m2.7805-0.74321h1.2754v-1.9708h-1.9683v1.9708h0.69294m-5.4777-1.9739h-1.4671v1.9704h1.9577v-1.9704h-0.49061m2.5781 0.3508v-0.34621h-1.9618v1.9658h1.9618v-1.6196m2.0839 0.63024v-0.97625h-1.9616v1.9654h1.9616v-0.98919m0.39892-1.0881h1.6934v-1.9466h-1.9696v1.9466h0.27629m-5.8469 0h1.2766v-1.9467h-1.9579v1.9467h0.68124m1.3992-0.25567v0.25215h1.9613v-1.9432h-1.9613v1.691m2.9115 0.25567h1.1338v-1.9467h-1.9579v1.9467h0.82415z"/><path d="m78.146 71.28h0.84144v2.0046h-1.9687v-2.0046h1.1272z" fill="#444d5f"/><path d="m77.015 79.378v-1.8396h1.9738v1.9898h-1.9738v-0.15019z" fill="#b48ead"/><path d="m70.763 72.933v-1.6497c0.02778-0.0013 0.04893-0.0031 0.07009-0.0031 0.609-1.5e-4 1.218 6.25e-4 1.827-0.0014 0.05549-1.87e-4 0.06906 0.01595 0.06891 0.06977-0.0018 0.62596-0.0014 1.2519-6.25e-4 1.8779 4.7e-5 0.04068-0.0025 0.06457-0.05574 0.06441-0.62089-0.0019-1.2418-0.0012-1.8627-0.0013-0.01179-3e-6 -0.02357-0.0017-0.04693-0.0034v-0.35317z" fill="#2e3440"/><path d="m76.896 72.303v0.98317h-1.9605v-2.001h1.9605v1.0178z" fill="#434c5e"/><path d="m73.728 71.28h1.0797v2.0052h-1.9559v-2.0052h0.8762z" fill="#3b4252"/><path d="m72.728 78.058v1.4709h-1.9618v-1.9895h1.9618v0.51858z" fill="#d08770"/><path d="m72.847 78.415v-0.87638h1.9612v1.9906h-1.9612v-1.1142z" fill="#ebcb8b"/><path d="m74.931 78.165v-0.62222c0.08482-0.01683 1.9033-0.0094 1.9591 0.0071v1.9766c-0.1208 0.01877-1.8974 0.0077-1.9591-0.01363v-1.3479z" fill="#a3be8c"/><path d="m77.705 77.428h-0.68699v-1.9708h1.9683v1.9708h-1.2813z" fill="#bf616a"/><path d="m72.239 75.454h0.48466v1.9704h-1.9577v-1.9704h1.473z" fill="#88c0d0"/><path d="m74.812 75.811v1.6137h-1.9618v-1.9658h1.9618v0.35216z" fill="#81a1c1"/><path d="m76.896 76.441v0.98324h-1.9616v-1.9654h1.9616v0.9822z" fill="#5e81ac"/><path d="m77.288 75.347h-0.27033v-1.9466h1.9696v1.9466h-1.6993z" fill="#8fbcbb"/><path d="m71.442 75.347h-0.67529v-1.9467h1.9579v1.9467h-1.2826z" fill="#d8dee9"/><path d="m72.847 75.085v-1.6851h1.9613v1.9432h-1.9613v-0.2581z" fill="#e5e9f0"/><path d="m75.752 75.347h-0.8182v-1.9467h1.9579v1.9467h-1.1397z" fill="#e5e9f0"/></g></svg>
